<svg width="143" height="143" fill="none" version="1.1" viewBox="0 0 143 143" xmlns="http://www.w3.org/2000/svg">
 <path transform="matrix(.90867 0 0 .90867 16.221 6.6718)" d="m121.67 46.16-4.4-11.95 3.06-6.86c0.192-0.4328 0.249-0.9135 0.164-1.3792-0.086-0.4658-0.31-0.8948-0.644-1.2308l-8.32-8.41c-1.786-1.8123-4.05-3.08-6.529-3.6553-2.478-0.5754-5.0692-0.4348-7.471 0.4053l-2.33 0.81-12.71-13.77-21.56-0.12h-0.14l-21.7 0.17-12.7 13.88-2.26-0.8c-2.4173-0.8501-5.027-0.993-7.5227-0.4121-2.4957 0.581-4.7739 1.8618-6.5673 3.6921l-8.47 8.57c-0.26582 0.2679-0.44438 0.6099-0.5122 0.9811-0.067825 0.3713-0.02174 0.7543 0.1322 1.0989l3.19 7.12-4.38 11.94 15.74 59.85c1.4873 5.654 4.9089 10.608 9.67 14 0 0 15.67 11.05 31.13 21.09 1.2226 0.976 2.7406 1.508 4.305 1.508s3.0824-0.532 4.305-1.508c17.37-11.38 31.11-21.13 31.11-21.13 4.757-3.394 8.175-8.348 9.66-14l12.84-49.1zm-57.28 42.29c-0.823-0.3684-1.672-0.6759-2.54-0.92h-1.53c-0.868 0.2441-1.717 0.5516-2.54 0.92l-3.85 1.6c-1.22 0.51-3.18 1.42-4.35 2l-7.08 3.69c-0.2564 0.0832-0.482 0.2412-0.6478 0.4538-0.1658 0.2125-0.2642 0.4698-0.2825 0.7387-0.0183 0.269 0.0444 0.5372 0.1799 0.7702 0.1355 0.2331 0.3376 0.4202 0.5804 0.5373l6.15 4.34c1.08 0.76 2.78 2.1 3.78 3l1.73 1.49c1 0.86 2.63 2.29 3.62 3.17l1.64 1.45c0.5067 0.422 1.1454 0.653 1.805 0.653s1.2982-0.231 1.805-0.653l7.08-6.18c1-0.87 2.69-2.21 3.77-3l6.15-4.4c0.2433-0.1168 0.4456-0.3044 0.5806-0.5381 0.1349-0.2337 0.1961-0.5028 0.1756-0.7719-0.0206-0.2691-0.1219-0.5257-0.2907-0.7362-0.1688-0.2106-0.3973-0.3653-0.6555-0.4438l-7.07-3.59c-1.18-0.6-3.14-1.5-4.37-2zm43.8-40.26-0.2 0.64c-0.117 0.4024-0.261 0.7966-0.43 1.18-0.83 1.03-2.24 2.63-3.15 3.63l-14 14.9c-0.4648 0.5426-0.7758 1.1997-0.9006 1.9032-0.1249 0.7034-0.0591 1.4274 0.1906 2.0968l2.3 5.43c0.5207 1.4386 0.5593 3.0075 0.11 4.47l-0.46 1.26c-0.7496 2.0503-2.0382 3.8605-3.73 5.24l-2.2 1.8c-0.5706 0.4139-1.237 0.676-1.9367 0.7617s-1.4097-0.0078-2.0633-0.2717l-7.82-3.72c-1.4349-0.7155-2.778-1.6019-4-2.64l-6.27-5.65c-0.2494-0.2251-0.451-0.498-0.5929-0.8025-0.142-0.3044-0.2214-0.6343-0.2335-0.97s0.0433-0.6705 0.1629-0.9844 0.301-0.6006 0.5335-0.8431l14.12-9.54c0.535-0.3797 0.916-0.9387 1.0739-1.5754 0.1578-0.6368 0.0819-1.309-0.2139-1.8946l-5.49-10.3c-0.6283-1.2737-0.7254-2.7447-0.27-4.09 0.6805-1.2705 1.7792-2.2667 3.11-2.82l17.17-6.51c1.23-0.47 1.17-0.96-0.15-1.08l-10.09-0.94c-1.5822-0.1008-3.1706 0.0409-4.71 0.42l-8.78 2.46c-0.6233 0.1879-1.1574 0.5955-1.5031 1.1471-0.3457 0.5517-0.4796 1.21-0.3769 1.8529l3.47 18.84c0.2343 1.0429 0.2951 2.1173 0.18 3.18-0.15 0.45-1.32 1.06-2.61 1.35l-4.81 1.09c-1.5537 0.2856-3.1463 0.2856-4.7 0l-5.35-1.14c-1.29-0.32-2.47-0.87-2.61-1.32-0.1182-1.0621-0.0607-2.1365 0.17-3.18l3.45-18.84c0.1027-0.6429-0.0312-1.3012-0.3769-1.8529-0.3457-0.5516-0.8798-0.9592-1.5031-1.1471l-8.78-2.45c-1.5395-0.379-3.1278-0.5206-4.71-0.42l-10.09 1c-1.31 0.08-1.38 0.61-0.14 1.08l17.18 6.49c1.3308 0.5533 2.4295 1.5495 3.11 2.82 0.226 0.666 0.3186 1.3701 0.2722 2.0719-0.0463 0.7018-0.2306 1.3876-0.5422 2.0181l-5.48 10.3c-0.2958 0.5856-0.3717 1.2578-0.2139 1.8946 0.1578 0.6367 0.5389 1.1957 1.0739 1.5754l14.13 9.52c0.2325 0.2425 0.4139 0.5292 0.5335 0.8431s0.175 0.6487 0.1629 0.9844-0.0915 0.6656-0.2335 0.9701c-0.1419 0.3044-0.3436 0.5773-0.5929 0.8024l-6.26 5.65c-1.2215 1.0416-2.5646 1.9314-4 2.65l-7.82 3.73c-0.6528 0.2653-1.3623 0.3605-2.062 0.2765-0.6996-0.0839-1.3665-0.3442-1.938-0.7565l-2.2-1.79c-1.69-1.3771-2.9784-3.1836-3.73-5.23l-0.46-1.26c-0.4493-1.4625-0.4107-3.0314 0.11-4.47l2.29-5.43c0.2496-0.6694 0.3155-1.3934 0.1906-2.0968-0.1249-0.7035-0.4358-1.3606-0.9006-1.9032l-14-14.88c-0.91-0.97-2.33-2.63-3.16-3.63-0.1501-0.3946-0.2737-0.7989-0.37-1.21l-0.2-0.64c0.0158-1.2583 0.1973-2.5091 0.54-3.72 0.5681-1.0859 1.1992-2.1377 1.89-3.15l4-5.87c0.74-1.09 2.03-2.87 2.85-3.87l5.35-6.71c0.4889-0.654 1.02-1.2753 1.59-1.86h0.11c0.01-0.01 1.08 0.19 2.38 0.44l8.2 1.57 3.59 0.68c1.1918 0.056 2.3834-0.1171 3.51-0.51l6.47-2.1c1.26-0.41 3.34-0.99 4.63-1.29 1.3595-0.1445 2.7305-0.1445 4.09 0 1.29 0.28 3.37 0.87 4.63 1.28l6.47 2.09c1.1266 0.3929 2.3181 0.566 3.51 0.51l11.78-2.27c1.3-0.25 2.38-0.44 2.38-0.44h0.11c0.57 0.5847 1.1011 1.206 1.59 1.86l5.36 6.71c0.85 1.03 2.11 2.77 2.85 3.87l4 5.87c0.92 1.3427 1.685 2.7852 2.28 4.3 0.118 0.848 0.172 1.7038 0.16 2.56z" clip-rule="evenodd" fill="#fff" fill-rule="evenodd"/>
</svg>
