<svg width="143" height="143" fill="none" version="1.1" viewBox="0 0 143 143" xmlns="http://www.w3.org/2000/svg">
 <path d="m127.78 48.202-4.0704-11.055 2.8308-6.3462c0.17762-0.40038 0.23035-0.84507 0.15173-1.2759-0.0796-0.43091-0.28679-0.82778-0.59578-1.1386l-7.6968-7.7801c-1.6522-1.6766-3.7466-2.8493-6.0399-3.3815-2.2924-0.5323-4.6895-0.40223-6.9114 0.37494l-2.1555 0.74933-11.758-12.739-19.945-0.11101h-0.12951l-20.075 0.15727-11.749 12.84-2.0907-0.74008c-2.2362-0.78642-4.6505-0.91862-6.9592-0.38123-2.3088 0.53748-4.4163 1.7223-6.0754 3.4155l-7.8356 7.9281c-0.24591 0.24783-0.4111 0.56422-0.47383 0.90761-0.06274 0.34349-0.02011 0.6978 0.1223 1.0166l2.9511 6.5867-4.0519 11.046 14.561 55.367c1.3759 5.2305 4.5412 9.8134 8.9457 12.951 0 0 14.496 10.222 28.798 19.51 1.131 0.9029 2.5353 1.395 3.9825 1.395 1.4472 0 2.8515-0.49215 3.9825-1.395 16.069-10.528 28.78-19.547 28.78-19.547 4.4007-3.1398 7.5626-7.7227 8.9364-12.951l11.878-45.422zm-52.989 39.122c-0.76135-0.34081-1.5468-0.62527-2.3497-0.85109h-1.4154c-0.80298 0.22582-1.5884 0.51028-2.3497 0.85109l-3.5616 1.4802c-1.1286 0.4718-2.9418 1.3136-4.0242 1.8502l-6.5497 3.4136c-0.23719 0.07697-0.4459 0.22313-0.59928 0.41981-0.15338 0.19658-0.24441 0.43461-0.26134 0.68337-0.01693 0.24885 0.04107 0.49696 0.16642 0.71251 0.12535 0.21564 0.31231 0.38872 0.53692 0.49705l5.6893 4.0149c0.9991 0.70307 2.5718 1.9427 3.4969 2.7753l1.6004 1.3784c0.9251 0.79558 2.433 2.1185 3.3488 2.9326l1.5172 1.3414c0.46875 0.3904 1.0596 0.6041 1.6698 0.6041 0.61019 0 1.201-0.2137 1.6698-0.6041l6.5497-5.7171c0.9251-0.80483 2.4885-2.0445 3.4876-2.7753l5.6893-4.0704c0.22508-0.10805 0.41222-0.2816 0.53711-0.49779 0.1248-0.2162 0.18141-0.46514 0.16245-0.71408-0.01906-0.24894-0.11277-0.48632-0.26893-0.68106-0.15616-0.19482-0.36754-0.33794-0.6064-0.41056l-6.5404-3.3211c-1.0916-0.55506-2.9048-1.3876-4.0427-1.8502zm40.519-37.244-0.18503 0.59206c-0.10824 0.37226-0.24145 0.73693-0.39778 1.0916-0.76784 0.95285-2.0722 2.433-2.9141 3.3581l-12.951 13.784c-0.42999 0.50196-0.71769 1.1098-0.83314 1.7606-0.11554 0.65071-0.05467 1.3205 0.17632 1.9397l2.1277 5.0233c0.48171 1.3308 0.51742 2.7822 0.10176 4.1352l-0.42554 1.1656c-0.69345 1.8967-1.8855 3.5713-3.4506 4.8475l-2.0352 1.6652c-0.52786 0.3829-1.1443 0.62536-1.7916 0.70464s-1.3041-0.0072-1.9087-0.25135l-7.2342-3.4414c-1.3274-0.66191-2.5699-1.4819-3.7004-2.4423l-5.8003-5.2268c-0.23072-0.20824-0.41722-0.4607-0.54849-0.74239-0.13136-0.2816-0.20482-0.58679-0.21601-0.89734-0.01119-0.31055 0.04006-0.62028 0.1507-0.91066 0.11064-0.29039 0.27845-0.55561 0.49354-0.77995l13.062-8.8254c0.49493-0.35126 0.84739-0.86839 0.99346-1.4574 0.14598-0.5891 0.07577-1.211-0.19788-1.7527l-5.0788-9.5285c-0.58124-1.1783-0.67106-2.5391-0.24978-3.7836 0.62953-1.1753 1.6459-2.0969 2.877-2.6088l15.884-6.0224c1.1379-0.43479 1.0824-0.88809-0.13877-0.9991l-9.3342-0.86959c-1.4637-0.09325-2.9331 0.03783-4.3572 0.38854l-8.1223 2.2757c-0.57661 0.17382-1.0707 0.55089-1.3905 1.0612-0.3198 0.51038-0.44368 1.1194-0.34867 1.7141l3.2101 17.429c0.21675 0.96478 0.273 1.9587 0.16652 2.9418-0.13877 0.41629-1.2211 0.9806-2.4145 1.2489l-4.4497 1.0084c-1.4373 0.26421-2.9106 0.26421-4.3479 0l-4.9493-1.0546c-1.1934-0.29603-2.285-0.80483-2.4145-1.2211-0.10935-0.98254-0.05615-1.9765 0.15727-2.9418l3.1916-17.429c0.09501-0.59474-0.02886-1.2037-0.34867-1.7141-0.31981-0.51028-0.8139-0.88735-1.3905-1.0612l-8.1223-2.2665c-1.4242-0.35061-2.8935-0.4816-4.3572-0.38854l-9.3342 0.92509c-1.2119 0.07401-1.2766 0.56431-0.12951 0.9991l15.893 6.0039c1.2311 0.51186 2.2475 1.4334 2.877 2.6088 0.20907 0.61611 0.29474 1.2675 0.25181 1.9167-0.04283 0.64923-0.21333 1.2837-0.50159 1.8669l-5.0695 9.5285c-0.27364 0.54174-0.34386 1.1636-0.19788 1.7527 0.14598 0.58901 0.49853 1.1061 0.99346 1.4574l13.072 8.8069c0.21508 0.22434 0.3829 0.48956 0.49354 0.77995 0.11064 0.29039 0.16189 0.60011 0.1507 0.91066-0.01119 0.31056-0.08464 0.61574-0.21601 0.89744-0.13127 0.2816-0.31786 0.53406-0.54849 0.7423l-5.7911 5.2268c-1.13 0.96358-2.3725 1.7867-3.7004 2.4515l-7.2342 3.4506c-0.6039 0.24543-1.2603 0.3335-1.9075 0.25579-0.6472-0.07762-1.2641-0.31842-1.7928-0.69983l-2.0352-1.6559c-1.5634-1.2739-2.7553-2.9451-3.4506-4.8382l-0.42554-1.1656c-0.41564-1.353-0.37994-2.8043 0.10176-4.1352l2.1185-5.0233c0.2309-0.61926 0.29187-1.289 0.17632-1.9397-0.11554-0.6508-0.40316-1.2587-0.83314-1.7606l-12.951-13.765c-0.84184-0.89734-2.1555-2.433-2.9233-3.3581-0.13886-0.36504-0.2532-0.73906-0.34228-1.1194l-0.18502-0.59206c0.01462-1.164 0.18252-2.3212 0.49955-3.4414 0.52555-1.0046 1.1094-1.9776 1.7484-2.914l3.7004-5.4303c0.68457-1.0084 1.8779-2.655 2.6365-3.5801l4.9493-6.2074c0.45228-0.60501 0.9436-1.1798 1.4709-1.7207h0.10176c0.0092-0.0092 0.9991 0.17577 2.2017 0.40704l7.5858 1.4524 3.3211 0.62906c1.1025 0.0518 2.2049-0.10833 3.2471-0.4718l5.9854-1.9427c1.1656-0.37929 3.0898-0.91584 4.2832-1.1934 1.2577-0.13368 2.526-0.13368 3.7836 0 1.1934 0.25903 3.1176 0.80483 4.2832 1.1841l5.9854 1.9334c1.0422 0.36347 2.1445 0.5236 3.2471 0.4718l10.898-2.1c1.2026-0.23127 2.2017-0.40704 2.2017-0.40704h0.10176c0.5273 0.5409 1.0186 1.1157 1.4709 1.7207l4.9585 6.2074c0.78633 0.95285 1.952 2.5625 2.6365 3.5801l3.7004 5.4303c0.8511 1.2421 1.5588 2.5766 2.1092 3.9779 0.10917 0.78448 0.15912 1.5762 0.14803 2.3682z" clip-rule="evenodd" fill="#fff" fill-rule="evenodd" stroke-width=".9251"/>
</svg>
