<!-- Uploaded to: SVG Repo, www.svgrepo.com, Generator: SVG Repo Mixer Tools -->
<svg width="800px" height="800px" fill="#000000" version="1.1" viewBox="0 0 305 305" xml:space="preserve" xmlns="http://www.w3.org/2000/svg">
<g id="XMLID_16_" transform="matrix(.8125 0 0 .81257 28.59 28.584)" fill="#ececec">
	<path id="XMLID_17_" d="m95.506 152.51c0 31.426 25.567 56.991 56.994 56.991 31.425 0 56.99-25.566 56.99-56.991 0-31.426-25.565-56.993-56.99-56.993-31.427 0-56.994 25.567-56.994 56.993z"/>
	<path id="XMLID_18_" d="m283.73 77.281c0.444-0.781 0.436-1.74-0.023-2.513-13.275-22.358-32.167-41.086-54.633-54.159-23.155-13.475-49.636-20.597-76.577-20.597-46.625 0-90.077 20.924-119.22 57.407-0.643 0.804-0.727 1.919-0.212 2.81l42.93 74.355c0.45 0.78 1.28 1.25 2.164 1.25 0.112 0 0.226-8e-3 0.339-0.023 1.006-0.137 1.829-0.869 2.083-1.852 8.465-32.799 38.036-55.706 71.911-55.706 2.102 0 4.273 0.096 6.455 0.282 0.071 7e-3 0.143 0.01 0.214 0.01h122.39c0.899 0 1.729-0.482 2.173-1.264z"/>
	<path id="XMLID_19_" d="m175.04 224.94c-0.621-0.803-1.663-1.148-2.646-0.876-6.457 1.798-13.148 2.709-19.889 2.709-28.641 0-55.038-16.798-67.251-42.794-0.03-0.064-0.063-0.126-0.098-0.188l-61.24-106.07c-0.446-0.775-1.272-1.25-2.165-1.25h-0.013c-0.898 5e-3 -1.725 0.49-2.165 1.272-12.801 22.715-19.568 48.57-19.568 74.77 0 36.755 13.26 72.258 37.337 99.969 23.838 27.435 56.656 45.49 92.411 50.84 0.124 0.019 0.248 0.027 0.371 0.027 0.883 0 1.713-0.47 2.164-1.25l42.941-74.378c0.508-0.88 0.433-1.98-0.189-2.783z"/>
	<path id="XMLID_20_" d="m292.18 95.226h-85.974c-1.016 0-1.931 0.615-2.314 1.555-0.384 0.94-0.161 2.02 0.564 2.73 14.385 14.102 22.307 32.924 22.307 53 0 15.198-4.586 29.824-13.263 42.298-0.04 0.058-0.077 0.117-0.112 0.178l-61.346 106.25c-0.449 0.778-0.446 1.737 7e-3 2.513 0.449 0.767 1.271 1.237 2.158 1.237h0.028c40.37-0.45 78.253-16.511 106.67-45.222 28.439-28.735 44.101-66.826 44.101-107.26 0-19.217-3.532-37.956-10.498-55.698-0.376-0.958-1.299-1.587-2.327-1.587z"/>
</g>
</svg>
