<svg width="48" height="48" version="1.1" viewBox="0 0 48 48" xmlns="http://www.w3.org/2000/svg" xmlns:xlink="http://www.w3.org/1999/xlink">
 <linearGradient id="a">
  <stop offset="0"/>
  <stop stop-opacity="0" offset="1"/>
 </linearGradient>
 <linearGradient id="b" x1="29.203" x2="34.121" y1="24.827" y2="29.225" gradientUnits="userSpaceOnUse" xlink:href="#a"/>
 <linearGradient id="d" x1="15.949" x2="25.032" y1="23.618" y2="33.699" gradientUnits="userSpaceOnUse" xlink:href="#a"/>
 <linearGradient id="e" x1="21.991" x2="29.321" y1="33.78" y2="41.932" gradientUnits="userSpaceOnUse" xlink:href="#a"/>
 <g transform="matrix(1.1885 0 0 1.1885 -4.5245 -4.5172)">
  <path transform="matrix(.82373 0 0 .82373 4.2305 4.2047)" d="m24 0.83984c-1.5965 0-2.0647 2.7779-2.8711 6.584-0.64231 3.0316-1.0817 4.7696-1.4727 5.7871-0.11048 0.28754-0.2057 0.48519-0.28516 0.61914-0.0637 0.10739 0.12334 0.21677-0.52734 0.09961-0.54305-0.097779-1.1593-1.3069-0.92578-4.8555 0.097368-1.4797 0.30832-2.9548-0.57031-3.5762-0.54202-0.38332-1.0285-0.25623-1.3809-0.087891-0.90734 0.43347-2.1056 2.1243-4.3906 5.3047-1.8206 2.5339-2.8266 3.7938-3.5215 4.3828-0.48635 0.41222-0.11212 0.43352-1.7676-0.32031-2.1141-0.96266-2.6945-1.2236-3.0605-1.3848-4.803-2.1148-1.561 1.9016 1.4102 5.3203 1.3753 1.5825 2.3511 3.1395 2.7617 4.2715 0.15623 0.43073 0.18633 0.65494 0.18555 0.80664-0.79212 0.05845-2.1104 0.11794-2.1113 1.3672-7.423e-4 0.9672 1.334 1.8381 3.4746 3.7637 2.7467 2.4708 5.7994 7.3556 6.2617 9.3379 0.0098 0.04208 0.01879 0.08161 0.02539 0.11719 0.0016 0.0087 0.0025 0.01517 0.0039 0.02344-1.7322 1.3993-0.34728 4.0845 1.5195 4.9961 1.1766 0.57454 1.3711 0.98453 1.4434 1.2266 0.18856 0.63167 0.49353 1.4312 0.73633 1.8301 0.91245 1.4988 2.2174 0.46268 2.7852-0.50586 0.11573-0.19743 0.18885-0.31765 0.26367-0.43945 0.12755 0.04411 0.26976 0.09566 0.45312 0.16211 1.1557 0.41884 1.9268 0.4336 3.0586 0.02344 0.21999-0.07973 0.37085-0.13201 0.51953-0.18164 0.01412 0.03685 0.02502 0.06516 0.04102 0.10742 0.98324 2.5978 3.0938 1.7646 3.6836-0.78711 0.13571-0.58712 0.21458-0.8093 1.4531-1.4141 1.9783-0.96599 3.3263-3.6157 1.5645-5.0195 0.0015-0.0089 0.0022-0.01595 0.0039-0.02539 0.0065-0.03552 0.01563-0.07321 0.02539-0.11524 0.46018-1.9818 3.5165-6.8648 6.2637-9.3359 2.1406-1.9255 3.4754-2.7965 3.4746-3.7637-9.6e-4 -1.2492-1.3192-1.3087-2.1113-1.3672-7.82e-4 -0.1517 0.02932-0.37591 0.18555-0.80664 0.41058-1.132 1.3864-2.6889 2.7617-4.2715 2.9711-3.4187 6.2131-7.4351 1.4102-5.3203-0.36605 0.16118-0.94648 0.42211-3.0605 1.3848-1.6555 0.75383-1.2812 0.73253-1.7676 0.32031-0.69492-0.58899-1.7009-1.8489-3.5215-4.3828-2.2851-3.1804-3.4833-4.8712-4.3906-5.3047-0.35236-0.16834-0.83884-0.29543-1.3809 0.087891-0.87863 0.62137-0.66768 2.0965-0.57031 3.5762 0.23351 3.5486-0.38273 4.7577-0.92578 4.8555-0.65069 0.11716-0.46364 0.0078-0.52734-0.09961-0.07946-0.13395-0.17468-0.3316-0.28516-0.61914-0.39093-1.0175-0.83034-2.7555-1.4726-5.7871-0.80638-3.8061-1.2746-6.584-2.8711-6.584z" fill="#070707"/>
  <path transform="matrix(.82373 0 0 .82373 4.2305 4.2047)" d="m19.888 45.876c-0.16423-0.26978-0.44365-0.97646-0.62095-1.5704-0.1916-0.64193-0.6283-1.2293-2.0211-1.9094-1.3928-0.68008-2.3422-2.5562-1.1023-3.2757s-2.8742-7.8074-6.452-11.026c-3.5778-3.2184-3.8601-3.0442-1.8927-3.2064 1.9673-0.16214 0.52836-3.6259-2.322-6.9056-2.8503-3.2798-3.0587-3.7285-2.6991-3.5701 0.35959 0.15833 0.93539 0.41609 3.0485 1.3783 2.1131 0.96224 2.0885 1.9299 6.655-4.4258 4.5665-6.3557 4.5679-6.061 4.3246-2.3636-0.2433 3.6974 0.34569 5.7543 1.8407 6.0235 1.495 0.26918 1.9606 0.22904 3.5708-7.3709 1.6102-7.6 1.9551-7.6 3.5653 0 1.6102 7.6 2.0758 7.6401 3.5708 7.3709 1.495-0.26918 2.084-2.3261 1.8407-6.0235-0.2433-3.6974-0.24195-3.9921 4.3246 2.3636 4.5665 6.3557 4.5418 5.388 6.655 4.4258 2.1131-0.96224 2.6889-1.22 3.0485-1.3783 0.35959-0.15833 0.15123 0.29039-2.6991 3.5701-2.8503 3.2797-4.2893 6.7435-2.322 6.9056 1.9673 0.16214 1.6851-0.012-1.8927 3.2064-3.5778 3.2184-7.6998 10.302-6.452 11.026 1.2478 0.72408 0.38371 2.5501-1.1491 3.2985-1.5328 0.74843-1.8325 1.2286-2.0484 2.1626-0.37971 1.6428-1.072 1.9285-1.5585 0.64318-0.42365-1.1193-0.45925-1.1297-1.981-0.57821-0.89693 0.32504-1.3543 0.32054-2.3013-0.02266-1.3679-0.49572-1.306-0.51862-2.0564 0.76152-0.39197 0.6687-0.67012 0.82486-0.87366 0.49051z" fill="#e1e1e1"/>
  <path d="m31.75 22.609 4.3519 4.5491-1.8676 1.7278-2.6383 3.8535-4.843-4.7372z" fill="url(#b)" opacity=".08"/>
  <path d="m16.013 25.993 7.0277 6.9956 1.8933-1.765-8.6643-8.6322z" fill="url(#d)" opacity=".08"/>
  <path d="m19.208 25.394c-3.1008-3.4169-3.3531-3.4493-3.3531-1.2837 0 2.1656-0.40139 1.8169 2.7348 3.108 3.1362 1.2911 3.7191 1.5926 0.61836-1.8243zm10.53 1.6355c3.2864-1.3633 2.2785-0.76374 2.2785-2.9233 0-2.1595-0.09614-2.3013-3.3128 1.2435-3.2166 3.5449-2.2521 3.0431 1.0343 1.6797z" fill="#020202" stroke-width="6.285"/>
  <path d="m19.684 36.523 4.6134 4.6134 3.9727-1.2559 1.4609-0.84579-1.7172-3.5882-3.4857-2.5117z" fill="url(#e)" opacity=".08"/>
  <path d="m23.942 34.717c0.9501 8.05e-4 1.858 1.467 3.4416 1.9171s1.1289-0.95363 0.13708-1.592c-0.99186-0.6384-2.177-2.2236-3.5787-2.2088-0.39237 0.0041-0.76496 0.12267-1.1208 0.30895-1.0624 0.55617-1.9753 1.7163-2.8189 2.2389-1.1261 0.69769-0.1446 1.7531 1.0345 1.2976 1.1791-0.45552 1.8704-1.9626 2.9052-1.9617z" stroke-width="6.285"/>
 </g>
</svg>
