<?xml version="1.0" encoding="UTF-8"?>
<!-- Created with Inkscape (http://www.inkscape.org/) -->
<svg width="128" height="128" version="1.1" viewBox="0 0 128 128" xmlns="http://www.w3.org/2000/svg" xmlns:cc="http://creativecommons.org/ns#" xmlns:dc="http://purl.org/dc/elements/1.1/" xmlns:rdf="http://www.w3.org/1999/02/22-rdf-syntax-ns#">
 <metadata>
  <rdf:RDF>
   <cc:Work rdf:about="">
    <dc:format>image/svg+xml</dc:format>
    <dc:type rdf:resource="http://purl.org/dc/dcmitype/StillImage"/>
   </cc:Work>
  </rdf:RDF>
 </metadata>
 <g transform="matrix(1.2782 0 0 1.2782 -358.16 -20.491)" fill="#ececec">
  <path d="m337.86 29.58-19.176 3.7872c-3.0722 0.65674-3.668 2.3712-3.5955 5.0816l0.048 42.307c-0.13962 2.9735-0.46236 4.6062-3.8831 5.1535-12.106 1.8019-14.456 5.5517-14.382 10.882 0.0733 5.3088 4.3762 9.5624 10.307 8.9647 5.2013-0.57853 9.0764-2.0926 11.458-6.9033 0.92183-1.8119 1.2347-5.5808 1.0067-9.3961l-0.0479-33.653c0.01-2.3558-0.38934-3.6671 2.7326-4.3146l18.792-3.7872z"/>
  <path d="m354.97 47.749 0.048 25.144c-0.13962 2.9735-0.42846 4.335-3.8492 4.8823-12.106 1.8019-14.49 5.8229-14.416 11.153 0.0733 5.3088 4.444 9.2912 10.375 8.6935 5.2013-0.57853 8.9408-1.9231 11.322-6.7338 0.92183-1.8119 0.99741-5.4113 1.0745-9.2944l-0.032-51.483c-2e-3 -3.8606-0.87855-4.8563-5.2718-3.8633l-18.82 3.8194 3.3549 18.106 13.518-2.7265c1.8145-0.36598 2.6689 0.25488 2.6965 2.3018z"/>
 </g>
</svg>
