<?xml version="1.0" encoding="UTF-8"?>
<svg width="238" height="238" fill="none" version="1.1" viewBox="0 0 238 238" xmlns="http://www.w3.org/2000/svg">
 <path d="m119 0a119 119 0 0 0-119 119 119 119 0 0 0 119 119 119 119 0 0 0 119-119 119 119 0 0 0-119-119zm-24.896 74c0.8895 0.0185 1.7579 0.27403 2.5156 0.74023l65 40c0.728 0.447 1.3291 1.0734 1.7461 1.8184 0.417 0.746 0.63672 1.5864 0.63672 2.4414 0 0.854-0.21972 1.6944-0.63672 2.4394-0.417 0.746-1.0181 1.3733-1.7461 1.8203l-65 40c-0.7577 0.466-1.6261 0.72223-2.5156 0.74023-0.8894 0.019-1.7664-0.20077-2.543-0.63477-0.7765-0.435-1.423-1.067-1.873-1.834-0.45-0.768-0.6878-1.6412-0.6875-2.5312v-80c-3e-4 -0.8897 0.2375-1.7638 0.6875-2.5312s1.0965-1.3999 1.873-1.834c0.7766-0.4341 1.6536-0.65337 2.543-0.63477z" fill="#e1e1e1"/>
</svg>
