<svg width="48" height="48" viewBox="0 0 48 48" fill="none" xmlns="http://www.w3.org/2000/svg">
<path d="M5.49805 3.99999C5.11405 3.99999 4.73 4.14694 4.4375 4.43944C3.8525 5.02444 3.8525 5.97553 4.4375 6.56053L41.4355 43.5566C42.0205 44.1426 42.9707 44.1426 43.5547 43.5566C44.1397 42.9716 44.1397 42.0205 43.5547 41.4355L39.832 37.7129C42.2472 36.9368 43.998 34.6702 43.998 32V17.0801L40 21.0801V32C40 33.1 39.1 34 38 34H36.1191L16.1191 14H37.1719L34.5859 16.5879C33.8049 17.3679 33.8049 18.634 34.5859 19.414C35.3659 20.195 36.633 20.195 37.414 19.414L43.414 13.414C44.195 12.634 44.195 11.3679 43.414 10.5879L37.414 4.58787C36.634 3.80687 35.3659 3.80687 34.5859 4.58787C33.8049 5.36787 33.8049 6.63404 34.5859 7.41404L37.1719 9.99998H12.1191L6.55859 4.43943C6.26609 4.14693 5.88205 3.99999 5.49805 3.99999ZM5.57813 11.9473C4.59813 13.0163 4.00196 14.439 4.00196 16V30.9199L8.00001 26.9199V16C8.00001 15.544 8.15407 15.1202 8.41407 14.7832L5.57813 11.9473ZM11.998 28C11.486 28 10.9759 28.1954 10.5859 28.5859L4.58594 34.5859C3.80494 35.3659 3.80494 36.634 4.58594 37.414L10.5859 43.4121C11.3659 44.1941 12.6321 44.1941 13.4121 43.4121C14.1931 42.6321 14.1931 41.3659 13.4121 40.5859L10.8281 38H31.6328L27.6328 34H10.8281L13.4121 31.414C14.1931 30.634 14.1931 29.3659 13.4121 28.5859C13.0221 28.1954 12.51 28 11.998 28Z" fill="white"/>
</svg>
