<?xml version="1.0" encoding="UTF-8"?>
<svg width="48" height="48" fill="none" version="1.1" viewBox="0 0 48 48" xmlns="http://www.w3.org/2000/svg">
 <path d="m35.978 2.9757c-0.8135 0.00101-1.5453 0.49459-1.8511 1.2484-0.3057 0.75385-0.1245 1.6178 0.4585 2.1852l2.5859 2.5859h-27.172c-3.31 0-6 2.69-6 6v14.92l4-4v-10.92c0-1.1 0.9-2 2-2h27.172l-2.586 2.5859c-0.5225 0.5017-0.7329 1.2466-0.5502 1.9474 0.1827 0.7009 0.73 1.2483 1.4309 1.431s1.4458-0.0278 1.9474-0.5502l6-6c0.7808-0.7811 0.7808-2.0471 0-2.8282l-6-6c-0.377-0.38755-0.8948-0.60596-1.4355-0.60547zm-11.604 14.112c-0.1175 0.0099-0.2354 0.034-0.3496 0.0723l-3 1c-0.786 0.262-1.2112 1.1104-0.9492 1.8964s1.1144 1.2142 1.8984 0.9492l1.0254-0.3418v8.8184c0 0.829 0.671 1.5 1.5 1.5s1.5-0.671 1.5-1.5v-10.9c0-0.481-0.2321-0.9348-0.6231-1.2168-0.294-0.2115-0.6496-0.307-1.0019-0.2773zm19.625 0.98747-4 4v10.92c0 1.1-0.9 2-2 2h-27.172l2.586-2.586c0.5915-0.5749 0.7693-1.4541 0.4478-2.2138s-1.0764-1.2441-1.901-1.2197c-0.5196 0.0154-1.0127 0.2326-1.375 0.6054l-6 6c-0.78074 0.7811-0.78074 2.0471 0 2.8281l6 6c0.5017 0.5225 1.2466 0.733 1.9475 0.5503 0.7008-0.1827 1.2482-0.7301 1.4309-1.431 0.1827-0.7008-0.0278-1.4457-0.5502-1.9474l-2.586-2.5859h27.172c3.31 0 6-2.69 6-6z" fill="#fff"/>
</svg>
