<?xml version="1.0" encoding="UTF-8" standalone="no"?>
<svg
   width="48"
   height="48"
   viewBox="0 0 48 48"
   fill="none"
   version="1.1"
   id="svg1"
   sodipodi:docname="repeat_track.svg"
   inkscape:version="1.4 (e7c3feb100, 2024-10-09)"
   xmlns:inkscape="http://www.inkscape.org/namespaces/inkscape"
   xmlns:sodipodi="http://sodipodi.sourceforge.net/DTD/sodipodi-0.dtd"
   xmlns="http://www.w3.org/2000/svg"
   xmlns:svg="http://www.w3.org/2000/svg">
  <defs
     id="defs1" />
  <sodipodi:namedview
     id="namedview1"
     pagecolor="#505050"
     bordercolor="#eeeeee"
     borderopacity="1"
     inkscape:showpageshadow="0"
     inkscape:pageopacity="0"
     inkscape:pagecheckerboard="0"
     inkscape:deskcolor="#505050"
     inkscape:zoom="3.28125"
     inkscape:cx="-28.647619"
     inkscape:cy="-33.67619"
     inkscape:window-width="1920"
     inkscape:window-height="1015"
     inkscape:window-x="0"
     inkscape:window-y="0"
     inkscape:window-maximized="1"
     inkscape:current-layer="svg1" />
  <path
     d="m 35.9785,2.9757228 c -0.8135,0.00101 -1.5453,0.49459 -1.8511,1.24844 -0.3057,0.75385 -0.1245,1.61777 0.4585,2.18515 l 2.5859,2.58594 H 10 c -3.31,0 -6,2.6900002 -6,6.0000002 v 14.9199 l 4,-4 v -10.9199 c 0,-1.1 0.9,-2 2,-2 h 27.1719 l -2.586,2.5859 c -0.5225,0.5017 -0.7329,1.2466 -0.5502,1.9474 0.1827,0.7009 0.73,1.2483 1.4309,1.431 0.7009,0.1827 1.4458,-0.0278 1.9474,-0.5502 l 6,-6 c 0.7808,-0.7811 0.7808,-2.0471 0,-2.8282002 l -6,-5.99996 c -0.377,-0.38755 -0.8948,-0.60596 -1.4355,-0.60547 z M 24.375,17.08788 c -0.1175,0.0099 -0.2354,0.034 -0.3496,0.0723 l -3,1 c -0.786,0.262 -1.2112,1.1104 -0.9492,1.8964 0.262,0.786 1.1144,1.2142 1.8984,0.9492 L 23,20.66398 v 8.8184 c 0,0.829 0.671,1.5 1.5,1.5 0.829,0 1.5,-0.671 1.5,-1.5 v -10.9004 c 0,-0.481 -0.2321,-0.9348 -0.6231,-1.2168 -0.294,-0.2115 -0.6496,-0.307 -1.0019,-0.2773 z M 44,18.075353 l -4,4 v 10.9199 c 0,1.1 -0.9,2 -2,2 H 10.8281 l 2.586,-2.586 c 0.5915,-0.5749 0.7693,-1.4541 0.4478,-2.2138 -0.3215,-0.7597 -1.0764,-1.2441 -1.901,-1.2197 -0.5196,0.0154 -1.0127,0.2326 -1.375,0.6054 l -5.99996,6 c -0.78074,0.7811 -0.78074,2.0471 0,2.8281 l 5.99996,6 c 0.5017,0.5225 1.2466,0.733 1.9475,0.5503 0.7008,-0.1827 1.2482,-0.7301 1.4309,-1.431 0.1827,-0.7008 -0.0278,-1.4457 -0.5502,-1.9474 l -2.586,-2.5859 H 38 c 3.31,0 6,-2.69 6,-6 z"
     fill="#ffffff"
     id="path1"
     sodipodi:nodetypes="ccccssccsscccscccccscssccsssscsccssccscccccccccssc" />
</svg>
