<?xml version="1.0" encoding="UTF-8"?>
<svg width="48" height="48" fill="none" version="1.1" viewBox="0 0 48 48" xmlns="http://www.w3.org/2000/svg">
 <path d="m35.054 4.6006c-0.75064 9.319e-4 -1.4259 0.45638-1.7081 1.1519-0.28207 0.69561-0.11488 1.4928 0.42307 2.0164l2.3861 2.3861h-25.073c-3.0543 0-5.5364 2.4822-5.5364 5.5364v13.767l3.691-3.691v-10.076c0-1.015 0.83047-1.8454 1.8454-1.8454h25.073l-2.3862 2.3861c-0.48213 0.46294-0.67627 1.1503-0.50768 1.7969 0.16858 0.64675 0.67359 1.1518 1.3203 1.3204 0.64675 0.16858 1.3341-0.02565 1.7969-0.50768l5.5364-5.5364c0.72047-0.72074 0.72047-1.8889 0-2.6097l-5.5364-5.5364c-0.34787-0.35761-0.82567-0.55914-1.3246-0.55868zm-10.708 13.021c-0.10842 0.0091-0.21722 0.03138-0.32259 0.06671l-2.7683 0.92274c-0.72527 0.24175-1.1176 1.0246-0.87586 1.7499 0.24175 0.72527 1.0283 1.1204 1.7517 0.87586l0.94617-0.31539v8.137c0 0.76495 0.61915 1.3841 1.3841 1.3841s1.3841-0.61915 1.3841-1.3841v-10.058c0-0.44384-0.21416-0.86258-0.57496-1.1227-0.27128-0.19516-0.5994-0.28328-0.92448-0.25587zm18.108 0.91117-3.691 3.691v10.076c0 1.015-0.83046 1.8454-1.8454 1.8454h-25.073l2.3862-2.3862c0.5458-0.53048 0.70986-1.3418 0.4132-2.0427-0.29666-0.70095-0.99323-1.148-1.7542-1.1255-0.47945 0.01421-0.93445 0.21462-1.2688 0.55862l-5.5364 5.5364c-0.72042 0.72074-0.72042 1.8889 0 2.6096l5.5364 5.5364c0.46293 0.48213 1.1503 0.67636 1.797 0.50779 0.64665-0.16858 1.1517-0.67368 1.3203-1.3204 0.16858-0.64665-0.02565-1.334-0.50768-1.7969l-2.3862-2.3861h25.073c3.0542 0 5.5364-2.4822 5.5364-5.5364z" fill="#fff" stroke-width=".90372"/>
</svg>
