<svg width="48" height="48" viewBox="0 0 48 48" fill="none" xmlns="http://www.w3.org/2000/svg">
<path d="M38.4843 4.98438C37.8737 4.98452 37.3241 5.3548 37.0946 5.92066C36.8651 6.48653 37.0014 7.13505 37.4394 7.56054L40.8789 11H34.7344C32.5638 11 30.4981 11.9418 29.0742 13.5781L12.6621 32.4531C11.8063 33.4373 10.5697 34 9.26562 34H3.50001C2.95906 33.9923 2.45589 34.2765 2.18318 34.7438C1.91047 35.211 1.91047 35.7889 2.18318 36.2562C2.45589 36.7234 2.95906 37.0076 3.50001 37H9.26563C11.4356 37 13.5016 36.0597 14.9258 34.4219L31.3379 15.5469C32.1939 14.5632 33.4309 14 34.7344 14H40.8789L37.4394 17.4395C37.0476 17.8157 36.8898 18.3744 37.0268 18.9C37.1638 19.4257 37.5743 19.8362 38.1 19.9732C38.6256 20.1102 39.1843 19.9524 39.5605 19.5605L45.5605 13.5606C46.1461 12.9748 46.1461 12.0253 45.5605 11.4395L39.5605 5.43946C39.278 5.14856 38.8898 4.98439 38.4843 4.98438ZM3.5 11C2.67 11 2 11.67 2 12.5C2 13.33 2.67 14 3.5 14H9.26952C10.5695 14 11.8101 14.5608 12.6601 15.5508L17.2988 21L19.2891 18.709L14.9297 13.5801C13.4997 11.9401 11.4395 11 9.26951 11L3.5 11ZM26.6551 27L24.6648 29.291L29.0703 34.4199C30.5003 36.0599 32.5605 37 34.7305 37H40.8789L37.4394 40.4394C37.0476 40.8157 36.8898 41.3743 37.0268 41.9C37.1638 42.4256 37.5743 42.8361 38.1 42.9732C38.6256 43.1102 39.1843 42.9524 39.5605 42.5605L45.5605 36.5605C46.1461 35.9747 46.1461 35.0252 45.5605 34.4394L39.5605 28.4394C39.278 28.1485 38.8898 27.9844 38.4844 27.9844C37.8737 27.9845 37.3241 28.3548 37.0946 28.9207C36.8651 29.4865 37.0014 30.135 37.4394 30.5605L40.8789 34H34.7305C33.4305 34 32.1898 33.4392 31.3398 32.4492L26.6551 27Z" fill="white" stroke="white"/>
</svg>
