<?xml version="1.0" encoding="UTF-8"?>
<svg width="48" height="48" fill="none" version="1.1" viewBox="0 0 48 48" xmlns="http://www.w3.org/2000/svg">
 <g transform="translate(.98949 4)">
  <path d="m36.095 1.9207c0.2295-0.56586 0.7791-0.93614 1.3897-0.93628 0.4055 2e-5 0.7937 0.16418 1.0762 0.45508l6 6c0.5856 0.58579 0.5856 1.5353 0 2.1211l-6 6c-0.3762 0.3919-0.9349 0.5497-1.4605 0.4127-0.5257-0.137-0.9362-0.5475-1.0732-1.0732-0.1371-0.5256 0.0208-1.0843 0.4126-1.4605l3.4395-3.4395-37.379-1e-5c-0.83 0-1.5-0.67-1.5-1.5s0.67-1.5 1.5-1.5h37.379l-3.4395-3.4394c-0.438-0.42549-0.5744-1.074-0.3448-1.6399z" fill="#fff"/>
  <path d="m36.095 24.948c0.2295-0.5659 0.7791-0.9362 1.3897-0.9363 0.4055 0 0.7937 0.1642 1.0762 0.4551l6 6c0.5856 0.5858 0.5856 1.5353 0 2.1211l-6 5.9999c-0.3762 0.3919-0.9349 0.5497-1.4605 0.4127-0.5257-0.137-0.9362-0.5475-1.0732-1.0732-0.1371-0.5256 0.0208-1.0843 0.4126-1.4605l3.4395-3.4395h-37.379c-0.83 0-1.5-0.67-1.5-1.5s0.67-1.5 1.5-1.5h37.379l-3.4395-3.4395c-0.438-0.4254-0.5744-1.074-0.3448-1.6398z" fill="#fff"/>
  <path d="m36.095 1.9207c0.2295-0.56586 0.7791-0.93614 1.3897-0.93628 0.4055 2e-5 0.7937 0.16418 1.0762 0.45508l6 6c0.5856 0.58579 0.5856 1.5353 0 2.1211l-6 6c-0.3762 0.3919-0.9349 0.5497-1.4605 0.4127-0.5257-0.137-0.9362-0.5475-1.0732-1.0732-0.1371-0.5256 0.0208-1.0843 0.4126-1.4605l3.4395-3.4395-37.379-1e-5c-0.83 0-1.5-0.67-1.5-1.5s0.67-1.5 1.5-1.5h37.379l-3.4395-3.4394c-0.438-0.42549-0.5744-1.074-0.3448-1.6399z" stroke="#fff"/>
  <path d="m36.095 24.948c0.2295-0.5659 0.7791-0.9362 1.3897-0.9363 0.4055 0 0.7937 0.1642 1.0762 0.4551l6 6c0.5856 0.5858 0.5856 1.5353 0 2.1211l-6 5.9999c-0.3762 0.3919-0.9349 0.5497-1.4605 0.4127-0.5257-0.137-0.9362-0.5475-1.0732-1.0732-0.1371-0.5256 0.0208-1.0843 0.4126-1.4605l3.4395-3.4395h-37.379c-0.83 0-1.5-0.67-1.5-1.5s0.67-1.5 1.5-1.5h37.379l-3.4395-3.4395c-0.438-0.4254-0.5744-1.074-0.3448-1.6398z" stroke="#fff"/>
 </g>
</svg>
