<?xml version="1.0" encoding="UTF-8"?>
<svg width="168px" height="168px" version="1.1" viewBox="0 0 168 168" xmlns="http://www.w3.org/2000/svg">
 <path d="m84 15c-38.107 0-69 30.893-69 69-1e-6 38.109 30.893 69 69 69 38.111 0 69-30.89 69-69 0-38.105-30.89-68.997-69.001-68.997zm31.643 99.518c-1.2359 2.0269-3.889 2.6696-5.9159 1.4255-16.2-9.8958-36.595-12.137-60.613-6.6494-2.3145 0.52733-4.6215-0.92286-5.1488-3.2382-0.5298-2.3153 0.91458-4.6224 3.2348-5.1498 26.284-6.0075 48.829-3.4194 67.017 7.6958 2.0269 1.2442 2.6696 3.8891 1.4254 5.9161zm8.4454-18.79c-1.5572 2.5337-4.8695 3.3329-7.399 1.7756-18.547-11.403-46.819-14.704-68.757-8.0452-2.8451 0.8594-5.85-0.74404-6.7135-3.5842-0.8569-2.8451 0.74732-5.8444 3.5875-6.7095 25.059-7.6035 56.211-3.9204 77.51 9.1682 2.5295 1.5573 3.3288 4.8696 1.7715 7.3959zm0.72507-19.564c-22.238-13.209-58.929-14.423-80.161-7.9793-3.4095 1.0341-7.0151-0.8907-8.0483-4.3003-1.0332-3.4112 0.88986-7.0144 4.3018-8.051 24.373-7.3992 64.891-5.9696 90.494 9.23 3.0733 1.8201 4.0785 5.7809 2.2576 8.8436-1.8127 3.0668-5.7841 4.0778-8.8409 2.2568z" fill="#ccc" stroke-width=".82396"/>
</svg>
