<!-- Created with Inkscape (http://www.inkscape.org/) -->
<svg width="100mm" height="100mm" version="1.1" viewBox="0 0 100 100" xmlns="http://www.w3.org/2000/svg">
 <path d="m50 26.197c-13.387 0-24.164 10.647-24.164 23.803 1e-6 13.156 10.777 23.803 24.164 23.803s24.164-10.647 24.164-23.803-10.777-23.803-24.164-23.803zm-9.0165 11.18 23.082 12.623-23.082 12.623z" fill="#fff"/>
 <path d="m50 6.7216a44 43.279 0 0 0-44 43.278 44 43.279 0 0 0 44 43.278 44 43.279 0 0 0 44-43.278 44 43.279 0 0 0-44-43.278zm0 15.147c15.694 0 28.492 12.604 28.492 28.131s-12.798 28.131-28.492 28.131-28.492-12.604-28.492-28.131c1e-6 -15.527 12.798-28.131 28.492-28.131z" fill="#fff" stroke-width="3.6066"/>
</svg>
