<svg width="168px" height="168px" version="1.1" viewBox="0 0 168 168" xmlns="http://www.w3.org/2000/svg">
 <path d="m84 15c-38.108 0-69 30.892-69 69 0 38.108 30.892 69 69 69s69-30.892 69-69c0-38.108-30.892-69-69-69zm0 12.385c31.268 0 56.615 25.347 56.615 56.615 0 31.268-25.347 56.615-56.615 56.615s-56.615-25.347-56.615-56.615c0-31.268 25.347-56.615 56.615-56.615zm0 10.615c-25.405 0-46 20.595-46 46 0 25.405 20.595 46 46 46s46-20.595 46-46c0-25.405-20.595-46-46-46zm0 8.8457c20.52 0 37.154 16.635 37.154 37.154 0 20.52-16.635 37.154-37.154 37.154s-37.154-16.635-37.154-37.154c0-20.52 16.635-37.154 37.154-37.154zm0 10.615c-14.657 0-26.539 11.882-26.539 26.539 0 14.657 11.882 26.539 26.539 26.539 14.657 0 26.539-11.882 26.539-26.539 0-14.657-11.882-26.539-26.539-26.539zm0 5.3086c11.725 0 21.23 9.505 21.23 21.23 0 11.725-9.505 21.23-21.23 21.23s-21.23-9.505-21.23-21.23c0-11.725 9.505-21.23 21.23-21.23z" fill="#fff" stroke-width="2.1562"/>
</svg>
