<?xml version="1.0" encoding="UTF-8" standalone="no"?>
<svg
   width="238"
   height="238"
   viewBox="0 0 238 238"
   fill="none"
   version="1.1"
   id="svg2"
   sodipodi:docname="Pause.svg"
   inkscape:version="1.4 (e7c3feb100, 2024-10-09)"
   xmlns:inkscape="http://www.inkscape.org/namespaces/inkscape"
   xmlns:sodipodi="http://sodipodi.sourceforge.net/DTD/sodipodi-0.dtd"
   xmlns="http://www.w3.org/2000/svg"
   xmlns:svg="http://www.w3.org/2000/svg">
  <sodipodi:namedview
     id="namedview2"
     pagecolor="#505050"
     bordercolor="#eeeeee"
     borderopacity="1"
     inkscape:showpageshadow="0"
     inkscape:pageopacity="0"
     inkscape:pagecheckerboard="0"
     inkscape:deskcolor="#505050"
     inkscape:zoom="2.9159664"
     inkscape:cx="119"
     inkscape:cy="118.82853"
     inkscape:window-width="1920"
     inkscape:window-height="1015"
     inkscape:window-x="0"
     inkscape:window-y="0"
     inkscape:window-maximized="1"
     inkscape:current-layer="svg2" />
  <path
     d="M 119,0 A 119,119 0 0 0 0,119 119,119 0 0 0 119,238 119,119 0 0 0 238,119 119,119 0 0 0 119,0 Z M 94,79 h 10 c 2.652,0 5.19531,1.054388 7.07031,2.929687 C 112.94531,83.805087 114,86.3478 114,89 v 60 c 0,2.652 -1.05469,5.19531 -2.92969,7.07031 C 109.19531,157.94531 106.652,159 104,159 H 94 c -2.6522,0 -5.194913,-1.05469 -7.070313,-2.92969 C 85.054388,154.19531 84,151.652 84,149 V 89 c 0,-2.6522 1.054388,-5.194913 2.929687,-7.070313 C 88.805087,80.054388 91.3478,79 94,79 Z m 40,0 h 10 c 2.652,0 5.19531,1.054388 7.07031,2.929687 C 152.94531,83.805087 154,86.3478 154,89 v 60 c 0,2.652 -1.05469,5.19531 -2.92969,7.07031 C 149.19531,157.94531 146.652,159 144,159 h -10 c -2.652,0 -5.19531,-1.05469 -7.07031,-2.92969 C 125.05469,154.19531 124,151.652 124,149 V 89 c 0,-2.6522 1.05469,-5.194913 2.92969,-7.070313 C 128.80469,80.054388 131.348,79 134,79 Z"
     style="fill:#e0e0e0;fill-opacity:1"
     id="path3" />
  <defs
     id="defs2">
    <clipPath
       id="clip0_53_45">
      <rect
         width="120"
         height="120"
         fill="white"
         transform="translate(59 59)"
         id="rect2" />
    </clipPath>
  </defs>
</svg>
