<?xml version="1.0" encoding="UTF-8" standalone="no"?>
<svg
   width="238"
   height="238"
   viewBox="0 0 238 238"
   fill="none"
   version="1.1"
   id="svg1"
   sodipodi:docname="Play.svg"
   inkscape:version="1.4 (e7c3feb100, 2024-10-09)"
   xmlns:inkscape="http://www.inkscape.org/namespaces/inkscape"
   xmlns:sodipodi="http://sodipodi.sourceforge.net/DTD/sodipodi-0.dtd"
   xmlns="http://www.w3.org/2000/svg"
   xmlns:svg="http://www.w3.org/2000/svg">
  <sodipodi:namedview
     id="namedview1"
     pagecolor="#505050"
     bordercolor="#eeeeee"
     borderopacity="1"
     inkscape:showpageshadow="0"
     inkscape:pageopacity="0"
     inkscape:pagecheckerboard="0"
     inkscape:deskcolor="#505050"
     inkscape:zoom="2.9159664"
     inkscape:cx="119"
     inkscape:cy="118.82853"
     inkscape:window-width="1920"
     inkscape:window-height="1015"
     inkscape:window-x="0"
     inkscape:window-y="0"
     inkscape:window-maximized="1"
     inkscape:current-layer="svg1" />
  <path
     d="M 119,0 A 119,119 0 0 0 0,119 119,119 0 0 0 119,238 119,119 0 0 0 238,119 119,119 0 0 0 119,0 Z M 94.103516,74 c 0.8895,0.0185 1.757925,0.274034 2.515625,0.740234 l 64.999999,39.999996 c 0.728,0.447 1.32909,1.07336 1.74609,1.81836 0.417,0.746 0.63672,1.58641 0.63672,2.44141 0,0.854 -0.21972,1.69445 -0.63672,2.43945 -0.417,0.746 -1.01809,1.37332 -1.74609,1.82032 l -64.999999,40 c -0.7577,0.466 -1.626125,0.72223 -2.515625,0.74023 -0.8894,0.019 -1.766369,-0.20077 -2.542969,-0.63477 -0.7765,-0.435 -1.423047,-1.06698 -1.873047,-1.83398 C 89.2375,160.76325 88.9997,159.89 89,159 V 79 c -3e-4,-0.8897 0.2375,-1.76385 0.6875,-2.53125 0.45,-0.7674 1.096547,-1.399884 1.873047,-1.833984 0.7766,-0.4341 1.653569,-0.653366 2.542969,-0.634766 z"
     style="fill:#e1e1e1;fill-opacity:1"
     id="path2" />
  <defs
     id="defs1">
    <clipPath
       id="clip0_53_44">
      <rect
         width="120"
         height="120"
         fill="white"
         transform="translate(59 59)"
         id="rect1" />
    </clipPath>
  </defs>
</svg>
