<!-- Uploaded to: SVG Repo, www.svgrepo.com, Generator: SVG Repo Mixer Tools -->
<svg width="800px" height="800px" fill="#000000" version="1.1" viewBox="0 0 32 32" xmlns="http://www.w3.org/2000/svg">
 <path d="m12.503 10.808c0.0092 0 0.0042 0 0 0zm-3.0846-1.5423c0.00918 0 0.00417 0 0 0zm18.451 2.3806c-0.55636-1.3379-1.6858-2.7801-2.5682-3.2405 0.72151 1.4113 1.1386 2.8327 1.2946 3.8878l0.0042 0.02252c-1.4506-3.6109-3.9045-5.0656-5.9123-8.2336-0.10009-0.16015-0.20019-0.32114-0.30028-0.49046-0.052549-0.086748-0.095923-0.1735-0.14347-0.26608-0.082578-0.16015-0.14263-0.32948-0.18684-0.50798 0-0.016682-0.01251-0.030028-0.03003-0.034199h-0.02586l-0.0042 0.00417c-0.0042 0-0.0092 0.00417-0.0092 0.00417s0-0.00417 0.0042-0.00918c-2.8502 1.6682-4.0271 4.5918-4.3316 6.4469-0.88166 0.052549-1.7416 0.27359-2.5366 0.64728-0.15264 0.077573-0.22104 0.25274-0.16432 0.40788 0.06423 0.17767 0.26442 0.26608 0.43791 0.18684 0.69482-0.32614 1.4422-0.52132 2.2112-0.57304l0.07424-0.00918c0.10426-0.00417 0.2127-0.00918 0.31696-0.00918 0.62142-0.00417 1.242 0.082578 1.8376 0.25607l0.10426 0.03086c0.10009 0.03003 0.19602 0.06423 0.29611 0.1001 0.06923 0.02586 0.14347 0.05255 0.2127 0.08258 0.05672 0.02085 0.11344 0.04754 0.16933 0.06923 0.08758 0.04004 0.17433 0.08341 0.26108 0.12679l0.11678 0.05589c0.08675 0.04421 0.17016 0.09092 0.25274 0.1393 0.05255 0.03086 0.10426 0.06089 0.15598 0.09592 0.9267 0.57387 1.6991 1.3688 2.2379 2.3155-0.68147-0.47712-1.9076-0.95506-3.0837-0.74654 4.6043 2.3022 3.3665 10.23-3.0153 9.9302-0.5697-0.02085-1.1302-0.13012-1.6641-0.32114-0.13012-0.04754-0.25691-0.10009-0.37786-0.15264-0.0734-0.0342-0.14764-0.06923-0.21687-0.10343-1.5648-0.80826-2.8552-2.338-3.0153-4.1931 0 0 0.59056-2.2021 4.2306-2.2021 0.39621 0 1.5214-1.1002 1.5423-1.4172-0.0092-0.10426-2.2379-0.9901-3.1063-1.8459-0.46458-0.45624-0.68145-0.67729-0.87747-0.84328-0.10426-0.090919-0.21687-0.1735-0.33448-0.25107-0.29027-1.021-0.30362-2.1028-0.034199-3.1288-1.3171 0.59973-2.338 1.5473-3.0804 2.3814h-0.0075071c-0.50798-0.6431-0.46961-2.7634-0.44375-3.2063-0.0041706-0.030028-0.37786 0.19101-0.42623 0.22605-0.44709 0.32114-0.86832 0.67814-1.2512 1.0735-0.43791 0.44292-0.83745 0.92087-1.1986 1.4338-0.82077 1.1644-1.4072 2.4848-1.7158 3.8745-0.00417 0.01752-0.12095 0.53967-0.2077 1.1819-0.017517 0.10009-0.030862 0.20019-0.043374 0.29945-0.035867 0.24356-0.060891 0.4913-0.074237 0.73486l-0.00417 0.0392c-0.00751 0.14347-0.016682 0.28277-0.025858 0.42623v0.06423c0 7.0733 5.7346 12.808 12.808 12.808 6.3335 0 11.594-4.601 12.624-10.64 0.02252-0.16432 0.0392-0.32948 0.05672-0.49463 0.25607-2.1946-0.02586-4.5051-0.82995-6.4335z" fill="#fff" stroke-width=".83412"/>
</svg>
