<?xml version="1.0" encoding="UTF-8"?>
<svg width="238" height="238" fill="none" version="1.1" viewBox="0 0 238 238" xmlns="http://www.w3.org/2000/svg">
 <path d="m238 119c0 65.722-53.278 119-119 119-65.722 0-119-53.278-119-119 0-65.722 53.278-119 119-119 65.722 0 119 53.278 119 119zm-157-36c0-2.2091 1.7909-4 4-4h22c2.209 0 4 1.7909 4 4v72c0 2.209-1.791 4-4 4h-22c-2.2091 0-4-1.791-4-4v-72zm51-4c-2.209 0-4 1.7909-4 4v72c0 2.209 1.791 4 4 4h22c2.209 0 4-1.791 4-4v-72c0-2.2091-1.791-4-4-4h-22z" clip-rule="evenodd" fill="#D9D9D9" fill-rule="evenodd"/>
</svg>
