<?xml version="1.0" encoding="UTF-8"?>
<svg width="48" height="48" fill="none" version="1.1" viewBox="0 0 48 48" xmlns="http://www.w3.org/2000/svg">
 <path d="m35.053 4.6004c-0.75064 9.32e-4 -1.4259 0.45637-1.7081 1.1519-0.28208 0.6956-0.11488 1.4928 0.42308 2.0163l2.3861 2.3862h-25.073c-3.0542 0-5.5364 2.4821-5.5364 5.5364v13.767l3.6909-3.6909v-10.076c0-1.015 0.83045-1.8454 1.8454-1.8454h25.073l-2.3862 2.3861c-0.48212 0.46294-0.67626 1.1503-0.50768 1.7969 0.16858 0.64674 0.67359 1.1518 1.3203 1.3204s1.3341-0.02565 1.7969-0.50769l5.5364-5.5364c0.72046-0.72074 0.72046-1.8889 0-2.6097l-5.5364-5.5364c-0.34787-0.35761-0.82566-0.55914-1.3246-0.55868zm7.4017 13.933-3.6909 3.6909v10.076c0 1.015-0.83045 1.8454-1.8454 1.8454h-25.073l2.3862-2.3862c0.5458-0.53048 0.70985-1.3417 0.41319-2.0427-0.29666-0.70094-0.99322-1.148-1.7541-1.1255-0.47945 0.01421-0.93445 0.21462-1.2687 0.55862l-5.5364 5.5364c-0.72041 0.72074-0.72041 1.8889 0 2.6096l5.5364 5.5364c0.46294 0.48212 1.1503 0.67635 1.797 0.50778 0.64664-0.16858 1.1517-0.67368 1.3203-1.3204 0.16858-0.64664-0.02565-1.334-0.50768-1.7969l-2.3862-2.3861h25.073c3.0542 0 5.5364-2.4821 5.5364-5.5364z" fill="#fff" stroke-width=".90372"/>
</svg>
