<?xml version="1.0" encoding="UTF-8"?>
<svg width="48" height="48" fill="none" version="1.1" viewBox="0 0 48 48" xmlns="http://www.w3.org/2000/svg">
 <path d="m37.275 6.5836c-0.55916 1.282e-4 -1.0624 0.33922-1.2726 0.85739-0.21017 0.5182-0.08534 1.112 0.31575 1.5017l3.1498 3.1498h-5.6268c-1.9877 0-3.8793 0.86246-5.1833 2.3609l-15.03 17.284c-0.7837 0.90128-1.9161 1.4166-3.1103 1.4166h-5.2799c-0.49537-0.0071-0.95616 0.2532-1.2058 0.68114-0.24973 0.42784-0.24973 0.95702 0 1.3849 0.24973 0.42784 0.71051 0.6881 1.2058 0.68113h5.2799c1.9871 0 3.8791-0.86108 5.1833-2.3609l15.03-17.284c0.78389-0.90082 1.9167-1.4166 3.1104-1.4166h5.6268l-3.1498 3.1498c-0.35878 0.3445-0.5033 0.85614-0.37785 1.3375 0.12546 0.48141 0.50137 0.85732 0.9828 0.9828 0.48131 0.12545 0.99294-0.01904 1.3375-0.37793l5.4946-5.4945c0.53626-0.53645 0.53626-1.4059 0-1.9423l-5.4946-5.4946c-0.2587-0.26639-0.6142-0.41673-0.9855-0.41674zm-32.037 5.5089c-0.76008 0-1.3736 0.61356-1.3736 1.3736 0 0.76008 0.61356 1.3736 1.3736 1.3736h5.2834c1.1905 0 2.3266 0.51356 3.1049 1.4201l4.2479 4.99 1.8226-2.098-3.9922-4.6968c-1.3095-1.5018-3.1962-2.3627-5.1833-2.3627zm21.204 14.652-1.8226 2.098 4.0343 4.6968c1.3095 1.5018 3.1962 2.3627 5.1833 2.3627h5.6304l-3.1498 3.1497c-0.35879 0.34459-0.5033 0.85614-0.37784 1.3376 0.12545 0.48132 0.50137 0.85724 0.9828 0.9828 0.48131 0.12546 0.99294-0.01904 1.3375-0.37793l5.4946-5.4946c0.53626-0.53645 0.53626-1.4059 0-1.9423l-5.4946-5.4946c-0.2587-0.26639-0.6142-0.41666-0.98541-0.41666-0.55925 9.3e-5 -1.0625 0.3392-1.2727 0.85741-0.21017 0.51813-0.08534 1.1119 0.31575 1.5016l3.1498 3.1498h-5.6304c-1.1906 0-2.3267-0.51356-3.105-1.4201z" fill="#fff" stroke="#fff" stroke-width=".96721"/>
</svg>
